# xmcd
#
# Track frame offsets:
#	150
#	18467
#	38295
#	60257
#	78820
#	99617
#	123185
#	144192
#	163750
#	187665
#	216777
#	244922
#	267045
#	289380
#	308742
#
# Disc length: 4454 seconds
#
# Revision: 1
# Processed by: cddbd v1.5.2PL0 Copyright (c) Steve Scherf et al.
# Submitted via: audiograbber 1.83.01
#
DISCID=ba11640f
DTITLE=Mix - Greatest Slow
DYEAR=1900
DGENRE=
TTITLE0=Wet Wet Wet - Love Is All Around
TTITLE1=Joshua Kadison - Jessie
TTITLE2=Seal - Kiss From A Rose
TTITLE3=Boyz II Men - I'll Make Love To You
TTITLE4=Keith Sweet feat. Roger - Put Your Loving Through The Test
TTITLE5=Color Me Bad - Forever Love
TTITLE6=R.Kelly - Your Body's Callin'
TTITLE7=All-4-one - I Swear
TTITLE8=Johnny Gill - There U Go
TTITLE9=Youssou N'Dour and Neneh Cherry - 7 Seconds
TTITLE10=J.T. Taylor - Prove My Love
TTITLE11=Aaliyah - At Your Best
TTITLE12=Intro - Let Me Be The One
TTITLE13=Laura Pausini - Strani Amori
TTITLE14=Boyz II Men - I'll Make Love To You (instrumental)
EXTD=
EXTT0=
EXTT1=
EXTT2=
EXTT3=
EXTT4=
EXTT5=
EXTT6=
EXTT7=
EXTT8=
EXTT9=
EXTT10=
EXTT11=
EXTT12=
EXTT13=
EXTT14=
PLAYORDER=
